{
	"asset": {
		"generator": "Unity 5.6.1f1",
		"extras": {
			"exporterVersion" : "2.1.0"
		},
		"version": "2.0"
	},
	"accessors": [
		{
			"bufferView": 2,
			"byteOffset": 0,
			"componentType": 5126,
			"count": 13600,
			"max": [ 0.944977, 0.900995, 1 ],
			"min": [ -0.944977, -0.900974, -1 ],
			"type": "VEC3"
		},
		{
			"bufferView": 2,
			"byteOffset": 163200,
			"componentType": 5126,
			"count": 13600,
			"max": [ 1, 1, 1 ],
			"min": [ -1, -1, -1 ],
			"type": "VEC3"
		},
		{
			"bufferView": 1,
			"byteOffset": 0,
			"componentType": 5126,
			"count": 13600,
			"max": [ 0.999976, 0.998666 ],
			"min": [ 0.00244864, 0.00055312 ],
			"type": "VEC2"
		},
		{
			"bufferView": 3,
			"byteOffset": 0,
			"componentType": 5126,
			"count": 13600,
			"max": [ 1, 1, 1, 1 ],
			"min": [ -1, -1, -1, -1 ],
			"type": "VEC4"
		},
		{
			"bufferView": 0,
			"byteOffset": 0,
			"componentType": 5123,
			"count": 46356,
			"max": [ 13599 ],
			"min": [ 0 ],
			"type": "SCALAR"
		}
	],
	"buffers": [
		{
			"byteLength": 745512,
			"uri": "DamagedHelmet.bin"
		}
	],
	"bufferViews": [
		{
			"buffer": 0,
			"byteLength": 92712,
			"byteOffset": 0,
			"byteStride": 0,
			"target": 34963
		},
		{
			"buffer": 0,
			"byteLength": 108800,
			"byteOffset": 92712,
			"byteStride": 8,
			"target": 34962
		},
		{
			"buffer": 0,
			"byteLength": 326400,
			"byteOffset": 201512,
			"byteStride": 12,
			"target": 34962
		},
		{
			"buffer": 0,
			"byteLength": 217600,
			"byteOffset": 527912,
			"byteStride": 16,
			"target": 34962
		}
	],
	"images": [
		{
			"uri": "textures/Default_albedo.jpg"
		},
		{
			"uri": "textures/Default_metallic_roughness.jpg"
		},
		{
			"uri": "textures/Default_normal.jpg"
		},
		{
			"uri": "textures/Default_emissive.jpg"
		},
		{
			"uri": "textures/Default_AO.jpg"
		}
	],
	"materials": [
		{
			"pbrMetallicRoughness": {
				"baseColorTexture" : {
					"index" : 0,
					"texCoord" : 0
				},
				"baseColorFactor": [1, 1, 1, 1],
				"metallicRoughnessTexture" : {
					"index" : 1,
					"texCoord" : 0
				},
				"metallicFactor": 1,
				"roughnessFactor": 1
			},
			"normalTexture" : {
				"index" : 2,
				"texCoord" : 0,
				"scale" : 0.8
			},
			"emissiveTexture" : {
				"index" : 3,
				"texCoord" : 0
			},
			"emissiveFactor": [1, 1, 1],
			"occlusionTexture" : {
				"index" : 4,
				"texCoord" : 0,
				"strength" : 0.632
			},
			"doubleSided": false,
			"name": "Helmet_mat"
		}
	],
	"meshes": [
		{
			"name": "mesh_helmet_LP_14946damagedHelmet",
			"primitives": [
				{
					"attributes": {
						"POSITION": 0,
						"NORMAL": 1,
						"TEXCOORD_0": 2,
						"TANGENT": 3
					},
					"indices": 4,
					"material": 0,
					"mode": 4
				}
			]
		}
	],
	"nodes": [
		{
			"name": "UnityGlTF_correctionMatrix",
			"children": [
				1
			],
			"matrix": [-1, 0, -8.742278E-08, 0, 0, 1, 0, 0, 8.742278E-08, 0, -1, 0, 0, 0, 0, 1]
		},
		{
			"name": "node_damagedHelmet_-8074",
			"mesh": 0,
			"matrix": [1, 0, 0, 0, 0, 1, 0, 0, 0, 0, 1, 0, 0, 0, 0, 1]
		}
	],
	"samplers": [
		{
			"magFilter": 9729,
			"minFilter": 9985,
			"wrapS": 10497,
			"wrapT": 10497
		}
	],
	"scenes": [
		{
			"name":"defaultScene",
			"nodes": [
				0
			]
		}
	],
	"scene": 0,
	"textures": [
		{
			"format": 6408,
			"internalFormat": 6408,
			"sampler": 0,
			"source": 0,
			"target": 3553,
			"type": 5121
		},
		{
			"format": 6408,
			"internalFormat": 6408,
			"sampler": 0,
			"source": 1,
			"target": 3553,
			"type": 5121
		},
		{
			"format": 6408,
			"internalFormat": 6408,
			"sampler": 0,
			"source": 2,
			"target": 3553,
			"type": 5121
		},
		{
			"format": 6408,
			"internalFormat": 6408,
			"sampler": 0,
			"source": 3,
			"target": 3553,
			"type": 5121
		},
		{
			"format": 6408,
			"internalFormat": 6408,
			"sampler": 0,
			"source": 4,
			"target": 3553,
			"type": 5121
		}
	]
}
